<svg width="240" height="50" viewBox="0 0 240 50" fill="none" xmlns="http://www.w3.org/2000/svg">
<path d="M22.9298 50.0006C21.7758 50.0006 20.7049 49.7243 19.6949 49.3126C18.7462 48.9253 17.8607 48.4187 17.0115 47.9166C13.3605 45.7476 8.74477 43.3971 5.39085 40.9489C2.65451 39.0868 0.00833398 37.2269 0.00833398 29.8832L0 25.0006L0.0131589 20.1174C0.00834651 12.7165 2.69654 10.8865 5.45437 9.00861L6.09283 8.57018L17.0115 2.0844C17.8614 1.58163 18.7466 1.07534 19.6949 0.688695C20.7042 0.276639 21.7758 0 22.9298 0C24.0842 0 25.1551 0.276639 26.1647 0.688695C27.1134 1.07598 27.9982 1.58228 28.8481 2.0844L39.7668 8.57018L40.4053 9.00861C43.1631 10.8865 45.851 12.7165 45.851 20.1174L45.8593 25.0006L45.8465 29.8832C45.851 37.2269 43.2051 39.0868 40.4688 40.9489C37.1142 43.3978 32.4994 45.7476 28.8481 47.9166C27.9982 48.4187 27.114 48.925 26.1647 49.3126C25.1548 49.7243 24.0842 50.0006 22.9298 50.0006Z" fill="#F15920"/>
<path d="M22.9298 19.0562C19.667 19.0562 17.0119 21.7186 17.0119 24.9903C17.0119 28.2617 19.667 30.9228 22.9298 30.9228C26.193 30.9228 28.8478 28.2617 28.8478 24.9903C28.8478 21.7186 26.193 19.0562 22.9298 19.0562ZM22.9298 31.8856C19.1374 31.8856 16.0516 28.7931 16.0516 24.9903C16.0516 21.1872 19.1374 18.0938 22.9298 18.0938C26.7227 18.0938 29.8077 21.1872 29.8077 24.9903C29.8077 28.7931 26.7227 31.8856 22.9298 31.8856Z" fill="#FEFEFE" stroke="#FEFEFE" stroke-width="0.549543" stroke-miterlimit="10"/>
<path d="M20.328 16.9337L20.0305 16.0173C20.6526 15.8143 21.3013 15.6786 21.9581 15.6113L22.0559 16.5677C21.4666 16.6285 20.8856 16.7517 20.328 16.9337ZM25.5526 16.9386C24.9905 16.7555 24.4098 16.6313 23.825 16.5709L23.9241 15.613C24.576 15.6812 25.2241 15.8192 25.8497 16.0231L25.5526 16.9386ZM17.2801 18.6932L16.6388 17.9769C17.1287 17.5359 17.6644 17.1463 18.2313 16.8182L18.7113 17.6517C18.2021 17.946 17.7203 18.2976 17.2801 18.6932ZM28.5941 18.7045C28.1555 18.3082 27.6749 17.9566 27.1654 17.6604L27.6467 16.8279C28.2139 17.1579 28.7493 17.5488 29.2373 17.9907L28.5941 18.7045ZM15.2066 21.5419L14.3311 21.1476C14.5993 20.548 14.9323 19.9741 15.3192 19.4417L16.0947 20.0098C15.7466 20.4872 15.4485 21.0028 15.2066 21.5419ZM30.6621 21.5564C30.4221 21.0173 30.1247 20.5016 29.7776 20.0233L30.554 19.4572C30.9406 19.9886 31.2714 20.5644 31.5389 21.1659L30.6621 21.5564ZM14.4716 24.9876L13.5114 24.9857C13.513 24.3247 13.5826 23.6652 13.7196 23.0245L14.658 23.2255C14.5354 23.8 14.4729 24.3941 14.4716 24.9876ZM31.3901 25.0417V25.0053C31.3901 24.4112 31.3288 23.8184 31.2075 23.2429L32.1469 23.0435C32.282 23.6846 32.35 24.3449 32.35 25.0053L31.3901 25.0417ZM14.3153 28.8274C14.0497 28.2259 13.846 27.5934 13.7115 26.9475L14.6509 26.7504C14.7719 27.3297 14.9538 27.8974 15.1928 28.4365L14.3153 28.8274ZM31.5232 28.8811L30.648 28.4864C30.8896 27.9473 31.076 27.3815 31.2005 26.8031L32.1389 27.0061C31.9996 27.651 31.7924 28.2825 31.5232 28.8811ZM16.6093 32.0083C16.1219 31.5647 15.6805 31.071 15.2968 30.5386L16.0741 29.9748C16.419 30.4521 16.8165 30.8966 17.2541 31.2952L16.6093 32.0083ZM29.2091 32.045L28.569 31.3286C29.0079 30.9333 29.4077 30.4914 29.7567 30.0143L30.5309 30.584C30.1427 31.1141 29.698 31.6059 29.2091 32.045ZM19.9937 33.9815C19.3716 33.7766 18.7681 33.5041 18.198 33.1731L18.6805 32.3397C19.1922 32.6388 19.7344 32.8823 20.293 33.0653L19.9937 33.9815ZM25.8131 33.9998L25.5199 33.0824C26.0797 32.9023 26.6232 32.6616 27.1359 32.3673L27.6139 33.202C27.0429 33.5311 26.4371 33.7987 25.8131 33.9998ZM22.9311 34.4495C22.5885 34.4495 22.2513 34.4311 21.9183 34.3954L22.0203 33.4385C22.6007 33.5002 23.2074 33.5022 23.7887 33.4446L23.8853 34.4012C23.5715 34.4331 23.2533 34.4495 22.9311 34.4495Z" fill="#FEFEFE" stroke="#FEFEFE" stroke-width="0.549543" stroke-miterlimit="10"/>
<path d="M20.1449 13.9098L19.9123 12.9764C20.5716 12.8117 21.2475 12.6997 21.9232 12.645L22.0008 13.6036C21.3778 13.6548 20.7535 13.758 20.1449 13.9098ZM25.735 13.9156C25.1289 13.7625 24.5055 13.6586 23.8809 13.6068L23.9595 12.6479C24.6368 12.7039 25.3134 12.8165 25.9701 12.9837L25.735 13.9156ZM16.7133 15.4162L16.1884 14.6098C16.7576 14.237 17.3607 13.9098 17.9825 13.6377L18.3665 14.5191C17.7945 14.7703 17.2379 15.0717 16.7133 15.4162ZM29.1627 15.4287C28.6391 15.0849 28.0834 14.7828 27.5114 14.5287L27.8989 13.6489C28.5185 13.9224 29.1206 14.2505 29.6885 14.6242L29.1627 15.4287ZM13.9529 17.9583L13.1964 17.3662C13.6116 16.8331 14.0771 16.3265 14.5792 15.8646L15.2288 16.5729C14.7656 16.9994 14.3363 17.4662 13.9529 17.9583ZM31.9176 17.9754C31.5342 17.4806 31.1056 17.0149 30.6442 16.5874L31.2955 15.88C31.7954 16.3429 32.2596 16.8483 32.6751 17.3835L31.9176 17.9754ZM12.163 21.2545L11.2554 20.9408C11.4765 20.2988 11.7536 19.6706 12.0783 19.0716L12.9208 19.5319C12.6218 20.0833 12.3667 20.6629 12.163 21.2545ZM33.7024 21.2789C33.4996 20.6848 33.2455 20.1045 32.9468 19.5528L33.7906 19.0941C34.1146 19.6924 34.3905 20.3229 34.6113 20.9659L33.7024 21.2789ZM11.5419 24.9594L10.5817 24.9575C10.5833 24.2752 10.6404 23.5907 10.7523 22.9217L11.6994 23.0815C11.5961 23.6975 11.5432 24.3299 11.5419 24.9594ZM34.3151 25.0334L34.3155 24.97C34.3155 24.354 34.2638 23.7226 34.1621 23.1053L35.1089 22.9477C35.2196 23.6168 35.2754 24.301 35.2754 24.9835L34.3151 25.0334ZM11.2381 28.9771C11.019 28.3318 10.8524 27.664 10.7434 26.993L11.6914 26.8393C11.7915 27.4581 11.9449 28.0722 12.146 28.666L11.2381 28.9771ZM34.5936 29.0501L33.687 28.7342C33.8923 28.1414 34.0495 27.5273 34.1541 26.9084L35.1009 27.0702C34.9873 27.7409 34.8163 28.4061 34.5936 29.0501ZM13.1659 32.5643C12.7501 32.0261 12.376 31.4497 12.0539 30.8508L12.899 30.3937C13.1958 30.9463 13.5413 31.4774 13.9253 31.974L13.1659 32.5643ZM32.6449 32.6228L31.8907 32.0287C32.2779 31.5334 32.626 31.0039 32.9247 30.4551L33.7675 30.9174C33.4431 31.5121 33.0652 32.0856 32.6449 32.6228ZM16.1464 35.3293C15.5789 34.9549 15.0392 34.5303 14.5426 34.0703L15.1951 33.363C15.6526 33.7895 16.1506 34.18 16.6751 34.5268L16.1464 35.3293ZM29.6468 35.3708L29.1235 34.5641C29.649 34.2225 30.1492 33.8336 30.6109 33.4103L31.2593 34.1196C30.7588 34.5795 30.2166 35.0012 29.6468 35.3708ZM19.8613 36.9773C19.2052 36.8087 18.5568 36.5845 17.935 36.3082L18.3239 35.4284C18.8972 35.6835 19.4942 35.8894 20.0987 36.0444L19.8613 36.9773ZM25.9194 36.9975L25.6875 36.0628C26.2938 35.9116 26.8925 35.7086 27.4681 35.4574L27.8505 36.34C27.2265 36.6115 26.5762 36.8338 25.9194 36.9975ZM22.9287 37.3629C22.5723 37.3623 22.2203 37.3465 21.8719 37.3179L21.9524 36.3593C22.5706 36.4111 23.2104 36.4159 23.8312 36.3651L23.9091 37.3237C23.5861 37.3497 23.2588 37.3629 22.9287 37.3629Z" fill="#FEFEFE" stroke="#FEFEFE" stroke-width="0.549543" stroke-miterlimit="10"/>
<path d="M21.0683 10.6926L20.9458 9.7379C21.6022 9.65331 22.2704 9.61084 22.9307 9.61084L22.9464 10.5733H22.9307C22.3109 10.5733 21.6843 10.6138 21.0683 10.6926ZM26.6661 11.0651C26.0613 10.9023 25.4409 10.7785 24.8226 10.6974L24.9474 9.74271C25.6067 9.82924 26.2686 9.96114 26.9151 10.1345L26.6661 11.0651ZM17.443 11.6599L17.0753 10.7708C17.6907 10.5144 18.3304 10.2989 18.9778 10.1258L19.2245 11.0564C18.6178 11.2182 18.0185 11.4212 17.443 11.6599ZM30.1294 12.5078C29.5914 12.1941 29.0248 11.913 28.4457 11.6718L28.815 10.783C29.4326 11.041 30.0367 11.3414 30.611 11.6743L30.1294 12.5078ZM14.1914 13.5406L13.6072 12.7773C14.1352 12.3704 14.697 11.9938 15.2755 11.6599L15.7554 12.4927C15.2132 12.8072 14.6864 13.1595 14.1914 13.5406ZM33.1041 14.7996C32.662 14.3567 32.1872 13.9379 31.6912 13.5551L32.2774 12.7928C32.8051 13.2 33.3123 13.6468 33.7827 14.1193L33.1041 14.7996ZM11.5327 16.1989L10.772 15.6099C11.1801 15.0795 11.6254 14.5722 12.0974 14.101L12.7749 14.7832C12.3332 15.2249 11.9151 15.7006 11.5327 16.1989ZM35.3904 17.7854C35.0792 17.2463 34.7275 16.7187 34.3441 16.2172L35.1067 15.6331C35.5142 16.1664 35.8896 16.7284 36.2213 17.3042L35.3904 17.7854ZM9.65009 19.4503L8.76332 19.0798C9.01838 18.4638 9.31835 17.8577 9.65361 17.2791L10.4846 17.7622C10.1698 18.3052 9.88911 18.8729 9.65009 19.4503ZM36.8277 21.2616C36.6653 20.6556 36.4619 20.0547 36.2229 19.4764L37.1097 19.1078C37.365 19.7257 37.5819 20.3664 37.7545 21.0146L36.8277 21.2616ZM8.67317 23.081L7.7216 22.9549C7.80919 22.2916 7.942 21.6277 8.11493 20.9828L9.0418 21.233C8.87946 21.8374 8.75562 22.4592 8.67317 23.081ZM37.3131 25.0551V24.9926C37.3131 24.3638 37.2723 23.7317 37.1918 23.1109L38.1437 22.9867C38.2293 23.6481 38.273 24.3226 38.273 24.9926L37.3131 25.0551ZM7.71358 26.9664C7.63081 26.317 7.58813 25.654 7.58813 24.9926L8.549 24.9618L8.54805 25.0145C8.54837 25.6125 8.58783 26.2349 8.66612 26.8442L7.71358 26.9664ZM37.7375 29.0341L36.8113 28.7819C36.9746 28.1765 37.1004 27.5547 37.1838 26.9349L38.135 27.0629C38.0468 27.7249 37.912 28.3882 37.7375 29.0341ZM8.74054 30.8483C8.48613 30.2323 8.26989 29.5902 8.09825 28.9408L9.0264 28.6944C9.18714 29.3023 9.38958 29.9042 9.62667 30.4796L8.74054 30.8483ZM36.1908 32.7339L35.3618 32.2488C35.6769 31.7087 35.9585 31.142 36.2004 30.5623L37.0856 30.9348C36.8277 31.5527 36.5267 32.1581 36.1908 32.7339ZM10.7364 34.3287C10.3309 33.7954 9.95647 33.2325 9.62441 32.6532L10.4563 32.1739C10.7678 32.7165 11.1188 33.245 11.4993 33.7436L10.7364 34.3287ZM33.7413 35.9072L33.0653 35.2249C33.5077 34.7839 33.9264 34.3085 34.3101 33.8118L35.0692 34.4011C34.6605 34.9312 34.2132 35.4375 33.7413 35.9072ZM13.5597 37.1729C13.0326 36.7647 12.5266 36.3163 12.056 35.8428L12.7364 35.1644C13.1776 35.609 13.6521 36.0274 14.1468 36.4118L13.5597 37.1729ZM30.5584 38.3415L30.0813 37.5068C30.6213 37.1961 31.1481 36.8458 31.6466 36.4627L32.2296 37.2279C31.6973 37.6361 31.1352 38.0102 30.5584 38.3415ZM17.0172 39.1904C16.4045 38.9344 15.8007 38.632 15.2228 38.2962L15.7054 37.4628C16.2476 37.7796 16.8132 38.0613 17.3878 38.3029L17.0172 39.1904ZM26.8525 39.8669L26.6077 38.9373C27.2125 38.7774 27.8127 38.5754 28.3912 38.3367L28.756 39.2268C28.1381 39.4812 27.4977 39.6967 26.8525 39.8669ZM20.8822 40.2397C20.2201 40.1509 19.5582 40.0181 18.9149 39.8431L19.1661 38.9141C19.7683 39.0775 20.3885 39.203 21.009 39.2847L20.8822 40.2397ZM22.9307 40.3751L22.8839 39.4127H22.9307C23.5445 39.4127 24.1608 39.3741 24.7626 39.2972L24.8839 40.2519C24.2419 40.3336 23.5849 40.3751 22.9307 40.3751Z" fill="#FEFEFE" stroke="#FEFEFE" stroke-width="0.549543" stroke-miterlimit="10"/>
<path d="M69.3347 30.0824C69.4999 30.0824 69.6427 30.1429 69.7627 30.2632C69.8827 30.3835 69.943 30.5267 69.943 30.6923V32.2958C69.943 32.4615 69.8827 32.6046 69.7627 32.7249C69.6427 32.8456 69.4999 32.9057 69.3347 32.9057H59.4677C59.3024 32.9057 59.16 32.8456 59.0397 32.7249C58.9194 32.6046 58.8594 32.4615 58.8594 32.2958V17.7053C58.8594 17.5396 58.9194 17.3965 59.0397 17.2762C59.16 17.1556 59.3024 17.0954 59.4677 17.0954H61.2926C61.4578 17.0954 61.6002 17.1556 61.7205 17.2762C61.8405 17.3965 61.9005 17.5396 61.9005 17.7053V30.0824H69.3347ZM82.6031 30.0824C82.7684 30.0824 82.9111 30.1429 83.0311 30.2632C83.1514 30.3835 83.2114 30.5267 83.2114 30.6923V32.2958C83.2114 32.4615 83.1514 32.6046 83.0311 32.7249C82.9111 32.8456 82.7684 32.9057 82.6031 32.9057H72.7136C72.5487 32.9057 72.406 32.8456 72.286 32.7249C72.1657 32.6046 72.1057 32.4615 72.1057 32.2958V17.7053C72.1057 17.5396 72.1657 17.3965 72.286 17.2762C72.406 17.1556 72.5487 17.0954 72.7136 17.0954H82.4232C82.5881 17.0954 82.7308 17.1556 82.8511 17.2762C82.9711 17.3965 83.0311 17.5396 83.0311 17.7053V19.3088C83.0311 19.4745 82.9711 19.6176 82.8511 19.7379C82.7308 19.8586 82.5881 19.9187 82.4232 19.9187H75.1468V23.5098H81.9275C82.0927 23.5098 82.2352 23.57 82.3555 23.6906C82.4755 23.8112 82.5358 23.954 82.5358 24.1197V25.7235C82.5358 25.8889 82.4755 26.032 82.3555 26.1526C82.2352 26.2729 82.0927 26.3331 81.9275 26.3331H75.1468V30.0824H82.6031ZM96.5026 17.0954C96.6675 17.0954 96.8103 17.1556 96.9306 17.2762C97.0506 17.3965 97.1106 17.5396 97.1106 17.7053V19.3088C97.1106 19.4745 97.0506 19.6176 96.9306 19.7379C96.8103 19.8586 96.6675 19.9187 96.5026 19.9187H92.4477V32.2958C92.4477 32.4615 92.3877 32.6046 92.2674 32.7249C92.1471 32.8456 92.0047 32.9057 91.8394 32.9057H90.0146C89.8494 32.9057 89.7069 32.8456 89.5866 32.7249C89.4666 32.6046 89.4063 32.4615 89.4063 32.2958V19.9187H85.3517C85.1864 19.9187 85.0437 19.8586 84.9234 19.7379C84.8034 19.6176 84.7434 19.4745 84.7434 19.3088V17.7053C84.7434 17.5396 84.8034 17.3965 84.9234 17.2762C85.0437 17.1556 85.1864 17.0954 85.3517 17.0954H96.5026ZM98.5075 22.9903C98.5524 22.1472 98.7138 21.353 98.9916 20.6077C99.2695 19.8621 99.6788 19.2149 100.219 18.6652C100.76 18.1154 101.436 17.6789 102.247 17.3553C103.058 17.0314 104.019 16.8696 105.13 16.8696C106.227 16.8696 107.18 17.0276 107.991 17.3441C108.802 17.66 109.478 18.0968 110.019 18.6539C110.559 19.211 110.972 19.8585 111.258 20.5964C111.543 21.334 111.708 22.1321 111.753 22.9903C111.768 23.2766 111.779 23.5928 111.787 23.9389C111.795 24.2853 111.798 24.643 111.798 25.0117C111.798 25.3806 111.795 25.7383 111.787 26.0847C111.779 26.4312 111.768 26.7474 111.753 27.0333C111.708 27.8768 111.547 28.6706 111.269 29.4163C110.991 30.1616 110.582 30.8091 110.041 31.3585C109.501 31.9082 108.821 32.3412 108.003 32.6574C107.184 32.9736 106.227 33.1315 105.13 33.1315C104.019 33.1315 103.058 32.9736 102.247 32.6574C101.436 32.3412 100.76 31.9082 100.219 31.3585C99.6788 30.8091 99.2695 30.1616 98.9916 29.4163C98.7138 28.6706 98.5524 27.8768 98.5075 27.0333C98.4924 26.7474 98.4812 26.4312 98.4735 26.0847C98.4661 25.7383 98.4623 25.3806 98.4623 25.0117C98.4623 24.643 98.4661 24.2853 98.4735 23.9389C98.4812 23.5928 98.4924 23.2766 98.5075 22.9903ZM108.712 23.1032C108.652 22.0192 108.303 21.1796 107.665 20.5852C107.026 19.9901 106.182 19.6929 105.13 19.6929C104.079 19.6929 103.234 19.9901 102.596 20.5852C101.958 21.1796 101.609 22.0192 101.549 23.1032C101.518 23.6755 101.503 24.3117 101.503 25.0117C101.503 25.712 101.518 26.3482 101.549 26.9205C101.609 28.0045 101.958 28.8401 102.596 29.4275C103.234 30.0146 104.079 30.3082 105.13 30.3082C106.182 30.3082 107.026 30.0146 107.665 29.4275C108.303 28.8401 108.652 28.0045 108.712 26.9205C108.742 26.3482 108.757 25.712 108.757 25.0117C108.757 24.3117 108.742 23.6755 108.712 23.1032ZM217.678 17.0954C219.555 17.0954 220.982 17.5323 221.958 18.4056C222.934 19.2789 223.422 20.491 223.422 22.0417C223.422 23.1409 223.171 24.0782 222.667 24.8537C222.164 25.6293 221.425 26.2051 220.449 26.5817L223.557 32.1604C223.602 32.2508 223.625 32.3335 223.625 32.4091C223.625 32.5445 223.576 32.6609 223.479 32.759C223.381 32.8568 223.264 32.9057 223.129 32.9057H221.214C220.914 32.9057 220.693 32.8343 220.55 32.6911C220.407 32.548 220.306 32.4164 220.246 32.2958L217.295 27.0333H214.298V32.2958C214.298 32.4615 214.238 32.6046 214.118 32.7249C213.998 32.8456 213.856 32.9057 213.69 32.9057H211.866C211.7 32.9057 211.558 32.8456 211.438 32.7249C211.317 32.6046 211.257 32.4615 211.257 32.2958V17.7053C211.257 17.5396 211.317 17.3965 211.438 17.2762C211.558 17.1556 211.7 17.0954 211.866 17.0954H217.678ZM214.298 24.2101H217.565C218.421 24.2101 219.104 24.0595 219.615 23.7585C220.126 23.4574 220.381 22.8851 220.381 22.0417C220.381 21.1986 220.126 20.6341 219.615 20.3478C219.104 20.0619 218.421 19.9187 217.565 19.9187H214.298V24.2101ZM238.538 17.0954C238.703 17.0954 238.846 17.1556 238.966 17.2762C239.086 17.3965 239.146 17.5396 239.146 17.7053V26.9658C239.146 27.8993 239.011 28.7424 238.741 29.4951C238.47 30.2481 238.065 30.8956 237.524 31.4376C236.983 31.9796 236.308 32.3975 235.497 32.6911C234.686 32.9848 233.747 33.1315 232.681 33.1315C231.6 33.1315 230.657 32.9848 229.854 32.6911C229.05 32.3975 228.378 31.9796 227.837 31.4376C227.297 30.8956 226.895 30.2481 226.632 29.4951C226.37 28.7424 226.238 27.8993 226.238 26.9658V17.7053C226.238 17.5396 226.298 17.3965 226.418 17.2762C226.538 17.1556 226.681 17.0954 226.846 17.0954H228.671C228.836 17.0954 228.979 17.1556 229.099 17.2762C229.219 17.3965 229.279 17.5396 229.279 17.7053V26.8526C229.279 27.4702 229.362 27.9971 229.527 28.4336C229.692 28.8704 229.925 29.2281 230.225 29.5066C230.525 29.7852 230.886 29.9882 231.307 30.1165C231.727 30.2442 232.185 30.3082 232.681 30.3082C233.176 30.3082 233.638 30.2442 234.066 30.1165C234.494 29.9882 234.858 29.7852 235.159 29.5066C235.459 29.2281 235.696 28.8704 235.868 28.4336C236.041 27.9971 236.127 27.4702 236.127 26.8526V17.7053C236.127 17.5396 236.187 17.3965 236.308 17.2762C236.428 17.1556 236.571 17.0954 236.736 17.0954H238.538ZM207.608 29.4726C207.773 29.4726 207.916 29.5327 208.036 29.6533C208.156 29.774 208.216 29.9168 208.216 30.0824V32.2958C208.216 32.4615 208.156 32.6046 208.036 32.7249C207.916 32.8456 207.773 32.9057 207.608 32.9057H205.513C205.348 32.9057 205.205 32.8456 205.085 32.7249C204.965 32.6046 204.905 32.4615 204.905 32.2958V30.0824C204.905 29.9168 204.965 29.774 205.085 29.6533C205.205 29.5327 205.348 29.4726 205.513 29.4726H207.608Z" fill="white"/>
<path d="M122.13 25.1609L126.41 17.7075C126.47 17.6323 126.571 17.5116 126.714 17.3463C126.857 17.1803 127.078 17.0977 127.379 17.0977H128.911C129.076 17.0977 129.218 17.1578 129.339 17.2784C129.459 17.3987 129.519 17.5419 129.519 17.7075V32.298C129.519 32.4637 129.459 32.6068 129.339 32.7271C129.218 32.8478 129.076 32.9079 128.911 32.9079H127.086C126.92 32.9079 126.778 32.8478 126.658 32.7271C126.538 32.6068 126.477 32.4637 126.477 32.298V23.467L123.549 28.5487C123.474 28.6693 123.369 28.7935 123.234 28.9215C123.099 29.0495 122.926 29.1135 122.715 29.1135H121.544C121.334 29.1135 121.161 29.0495 121.026 28.9215C120.891 28.7935 120.786 28.6693 120.711 28.5487L117.782 23.467V32.298C117.782 32.4637 117.722 32.6068 117.602 32.7271C117.482 32.8478 117.339 32.9079 117.174 32.9079H115.349C115.184 32.9079 115.041 32.8478 114.921 32.7271C114.801 32.6068 114.741 32.4637 114.741 32.298V17.7075C114.741 17.5419 114.801 17.3987 114.921 17.2784C115.041 17.1578 115.184 17.0977 115.349 17.0977H116.881C117.181 17.0977 117.403 17.1803 117.546 17.3463C117.688 17.5116 117.789 17.6323 117.85 17.7075L122.13 25.1609ZM140.444 17.0977C140.685 17.0977 140.865 17.1617 140.985 17.2897C141.105 17.4177 141.21 17.6097 141.301 17.8658L146.82 32.1401C146.835 32.1851 146.842 32.2379 146.842 32.298C146.842 32.4637 146.782 32.6068 146.662 32.7271C146.542 32.8478 146.399 32.9079 146.234 32.9079H144.612C144.312 32.9079 144.101 32.8439 143.981 32.7159C143.861 32.5879 143.778 32.4637 143.733 32.3434L142.765 29.8363H135.646L134.677 32.3434C134.632 32.4637 134.55 32.5879 134.429 32.7159C134.309 32.8439 134.099 32.9079 133.799 32.9079H132.177C132.012 32.9079 131.869 32.8478 131.749 32.7271C131.629 32.6068 131.569 32.4637 131.569 32.298C131.569 32.2379 131.576 32.1851 131.591 32.1401L137.11 17.8658C137.2 17.6097 137.306 17.4177 137.426 17.2897C137.546 17.1617 137.726 17.0977 137.966 17.0977H140.444ZM141.683 27.0131L139.205 20.5758L136.727 27.0131H141.683ZM155.312 17.0977C157.19 17.0977 158.616 17.5345 159.593 18.4078C160.569 19.2811 161.057 20.4932 161.057 22.0439C161.057 23.1431 160.805 24.0804 160.302 24.8559C159.799 25.6315 159.059 26.2073 158.083 26.584L161.192 32.1626C161.237 32.253 161.26 32.3357 161.26 32.4113C161.26 32.5467 161.211 32.6632 161.113 32.7613C161.015 32.859 160.899 32.9079 160.764 32.9079H158.849C158.549 32.9079 158.327 32.8365 158.184 32.6934C158.042 32.5502 157.941 32.4187 157.88 32.298L154.929 27.0356H151.933V32.298C151.933 32.4637 151.873 32.6068 151.753 32.7271C151.633 32.8478 151.49 32.9079 151.325 32.9079H149.5C149.335 32.9079 149.193 32.8478 149.072 32.7271C148.952 32.6068 148.892 32.4637 148.892 32.298V17.7075C148.892 17.5419 148.952 17.3987 149.072 17.2784C149.193 17.1578 149.335 17.0977 149.5 17.0977H155.312ZM151.933 24.2123H155.2C156.056 24.2123 156.739 24.0617 157.25 23.7607C157.76 23.4596 158.016 22.8873 158.016 22.0439C158.016 21.2008 157.76 20.6363 157.25 20.35C156.739 20.0641 156.056 19.9209 155.2 19.9209H151.933V24.2123ZM175.947 31.9593C176.022 32.0346 176.067 32.1025 176.082 32.1626C176.097 32.2228 176.105 32.2681 176.105 32.298C176.105 32.4637 176.045 32.6068 175.925 32.7271C175.805 32.8478 175.662 32.9079 175.497 32.9079H173.357C173.056 32.9079 172.816 32.8288 172.636 32.6709C172.455 32.5126 172.35 32.4187 172.32 32.3885L167.026 26.4032V32.298C167.026 32.4637 166.966 32.6068 166.846 32.7271C166.726 32.8478 166.583 32.9079 166.418 32.9079H164.594C164.428 32.9079 164.286 32.8478 164.166 32.7271C164.045 32.6068 163.985 32.4637 163.985 32.298V17.7075C163.985 17.5419 164.045 17.3987 164.166 17.2784C164.286 17.1578 164.428 17.0977 164.594 17.0977H166.418C166.583 17.0977 166.726 17.1578 166.846 17.2784C166.966 17.3987 167.026 17.5419 167.026 17.7075V23.0154L171.937 17.5946C172.072 17.4441 172.215 17.3235 172.365 17.2331C172.515 17.1427 172.711 17.0977 172.951 17.0977H175.024C175.189 17.0977 175.331 17.1578 175.452 17.2784C175.572 17.3987 175.632 17.5419 175.632 17.7075C175.632 17.8282 175.587 17.9411 175.497 18.0463L169.437 24.6642L175.947 31.9593ZM188.63 30.0847C188.795 30.0847 188.938 30.1451 189.058 30.2654C189.178 30.3858 189.238 30.5289 189.238 30.6945V32.298C189.238 32.4637 189.178 32.6068 189.058 32.7271C188.938 32.8478 188.795 32.9079 188.63 32.9079H178.74C178.575 32.9079 178.433 32.8478 178.312 32.7271C178.192 32.6068 178.133 32.4637 178.133 32.298V17.7075C178.133 17.5419 178.192 17.3987 178.312 17.2784C178.433 17.1578 178.575 17.0977 178.74 17.0977H188.45C188.615 17.0977 188.758 17.1578 188.878 17.2784C188.998 17.3987 189.058 17.5419 189.058 17.7075V19.311C189.058 19.4767 188.998 19.6199 188.878 19.7402C188.758 19.8608 188.615 19.9209 188.45 19.9209H181.173V23.512H187.954C188.119 23.512 188.262 23.5722 188.382 23.6928C188.502 23.8134 188.562 23.9563 188.562 24.1219V25.7257C188.562 25.8911 188.502 26.0342 188.382 26.1549C188.262 26.2752 188.119 26.3353 187.954 26.3353H181.173V30.0847H188.63ZM202.529 17.0977C202.694 17.0977 202.837 17.1578 202.957 17.2784C203.077 17.3987 203.137 17.5419 203.137 17.7075V19.311C203.137 19.4767 203.077 19.6199 202.957 19.7402C202.837 19.8608 202.694 19.9209 202.529 19.9209H198.474V32.298C198.474 32.4637 198.414 32.6068 198.294 32.7271C198.174 32.8478 198.031 32.9079 197.866 32.9079H196.041C195.876 32.9079 195.733 32.8478 195.613 32.7271C195.493 32.6068 195.433 32.4637 195.433 32.298V19.9209H191.378C191.213 19.9209 191.07 19.8608 190.95 19.7402C190.83 19.6199 190.77 19.4767 190.77 19.311V17.7075C190.77 17.5419 190.83 17.3987 190.95 17.2784C191.07 17.1578 191.213 17.0977 191.378 17.0977H202.529Z" fill="#F15920"/>
</svg>
