<svg xmlns="http://www.w3.org/2000/svg" width="172" height="36" viewBox="0 0 172 36" fill="none">
  <g clip-path="url(#clip0_1443_961)">
    <path d="M49.7933 21.6546C49.9122 21.6546 50.0149 21.6981 50.1013 21.7847C50.1876 21.8714 50.231 21.9744 50.231 22.0937V23.2482C50.231 23.3675 50.1876 23.4706 50.1013 23.5572C50.0149 23.644 49.9122 23.6873 49.7933 23.6873H42.6923C42.5734 23.6873 42.4709 23.644 42.3843 23.5572C42.2977 23.4706 42.2545 23.3675 42.2545 23.2482V12.743C42.2545 12.6238 42.2977 12.5207 42.3843 12.4341C42.4709 12.3472 42.5734 12.3039 42.6923 12.3039H44.0056C44.1245 12.3039 44.227 12.3472 44.3136 12.4341C44.3999 12.5207 44.4431 12.6238 44.4431 12.743V21.6546H49.7933ZM59.3421 21.6546C59.461 21.6546 59.5637 21.6981 59.6501 21.7847C59.7367 21.8714 59.7798 21.9744 59.7798 22.0937V23.2482C59.7798 23.3675 59.7367 23.4706 59.6501 23.5572C59.5637 23.644 59.461 23.6873 59.3421 23.6873H52.225C52.1063 23.6873 52.0035 23.644 51.9172 23.5572C51.8306 23.4706 51.7874 23.3675 51.7874 23.2482V12.743C51.7874 12.6238 51.8306 12.5207 51.9172 12.4341C52.0035 12.3472 52.1063 12.3039 52.225 12.3039H59.2126C59.3312 12.3039 59.434 12.3472 59.5206 12.4341C59.6069 12.5207 59.6501 12.6238 59.6501 12.743V13.8976C59.6501 14.0169 59.6069 14.1199 59.5206 14.2065C59.434 14.2934 59.3312 14.3367 59.2126 14.3367H53.976V16.9223H58.8558C58.9747 16.9223 59.0773 16.9656 59.1638 17.0524C59.2502 17.1393 59.2936 17.2421 59.2936 17.3614V18.5162C59.2936 18.6352 59.2502 18.7383 59.1638 18.8251C59.0773 18.9117 58.9747 18.9551 58.8558 18.9551H53.976V21.6546H59.3421ZM69.3451 12.3039C69.4637 12.3039 69.5665 12.3472 69.6531 12.4341C69.7394 12.5207 69.7826 12.6238 69.7826 12.743V13.8976C69.7826 14.0169 69.7394 14.1199 69.6531 14.2065C69.5665 14.2934 69.4637 14.3367 69.3451 14.3367H66.4269V23.2482C66.4269 23.3675 66.3837 23.4706 66.2971 23.5572C66.2105 23.644 66.108 23.6873 65.9891 23.6873H64.6758C64.5569 23.6873 64.4544 23.644 64.3678 23.5572C64.2815 23.4706 64.2381 23.3675 64.2381 23.2482V14.3367H61.3201C61.2012 14.3367 61.0984 14.2934 61.0119 14.2065C60.9255 14.1199 60.8823 14.0169 60.8823 13.8976V12.743C60.8823 12.6238 60.9255 12.5207 61.0119 12.4341C61.0984 12.3472 61.2012 12.3039 61.3201 12.3039H69.3451ZM70.7879 16.5482C70.8202 15.9412 70.9364 15.3694 71.1363 14.8328C71.3363 14.2959 71.6309 13.8299 72.0199 13.4341C72.4089 13.0383 72.8954 12.7241 73.4789 12.4911C74.0626 12.2578 74.7543 12.1414 75.5541 12.1414C76.3431 12.1414 77.0295 12.2551 77.6129 12.483C78.1966 12.7104 78.6831 13.0249 79.0722 13.426C79.4612 13.8272 79.7584 14.2934 79.9638 14.8247C80.1691 15.3557 80.288 15.9303 80.3203 16.5482C80.3312 16.7544 80.3393 16.982 80.3448 17.2312C80.3501 17.4807 80.3529 17.7382 80.3529 18.0036C80.3529 18.2693 80.3501 18.5268 80.3448 18.7762C80.3393 19.0257 80.3312 19.2533 80.3203 19.4592C80.288 20.0665 80.1719 20.6381 79.9719 21.1749C79.772 21.7116 79.4774 22.1778 79.0883 22.5733C78.6993 22.9691 78.2103 23.2809 77.6213 23.5085C77.032 23.7362 76.3431 23.8499 75.5541 23.8499C74.7543 23.8499 74.0626 23.7362 73.4789 23.5085C72.8954 23.2809 72.4089 22.9691 72.0199 22.5733C71.6309 22.1778 71.3363 21.7116 71.1363 21.1749C70.9364 20.6381 70.8202 20.0665 70.7879 19.4592C70.777 19.2533 70.769 19.0257 70.7634 18.7762C70.7581 18.5268 70.7553 18.2693 70.7553 18.0036C70.7553 17.7382 70.7581 17.4807 70.7634 17.2312C70.769 16.982 70.777 16.7544 70.7879 16.5482ZM78.1317 16.6295C78.0886 15.8491 77.8374 15.2446 77.3779 14.8166C76.9187 14.3881 76.3107 14.1741 75.5541 14.1741C74.7975 14.1741 74.1896 14.3881 73.7303 14.8166C73.2709 15.2446 73.0197 15.8491 72.9765 16.6295C72.9548 17.0416 72.9439 17.4997 72.9439 18.0036C72.9439 18.5078 72.9548 18.9659 72.9765 19.3779C73.0197 20.1584 73.2709 20.7601 73.7303 21.183C74.1896 21.6057 74.7975 21.8172 75.5541 21.8172C76.3107 21.8172 76.9187 21.6057 77.3779 21.183C77.8374 20.7601 78.0886 20.1584 78.1317 19.3779C78.1534 18.9659 78.1643 18.5078 78.1643 18.0036C78.1643 17.4997 78.1534 17.0416 78.1317 16.6295ZM156.551 12.3039C157.901 12.3039 158.928 12.6185 159.631 13.2473C160.333 13.876 160.685 14.7487 160.685 15.8653C160.685 16.6566 160.504 17.3315 160.142 17.8899C159.78 18.4483 159.247 18.8629 158.545 19.1341L160.782 23.1507C160.814 23.2158 160.831 23.2753 160.831 23.3297C160.831 23.4273 160.795 23.5111 160.725 23.5817C160.655 23.6521 160.571 23.6873 160.474 23.6873H159.096C158.88 23.6873 158.72 23.6359 158.617 23.5329C158.515 23.4298 158.442 23.3351 158.399 23.2482L156.275 19.4592H154.119V23.2482C154.119 23.3675 154.075 23.4706 153.989 23.5572C153.902 23.644 153.8 23.6873 153.681 23.6873H152.368C152.249 23.6873 152.146 23.644 152.06 23.5572C151.973 23.4706 151.93 23.3675 151.93 23.2482V12.743C151.93 12.6238 151.973 12.5207 152.06 12.4341C152.146 12.3472 152.249 12.3039 152.368 12.3039H156.551ZM154.119 17.4265H156.469C157.086 17.4265 157.577 17.3181 157.945 17.1013C158.312 16.8845 158.496 16.4725 158.496 15.8653C158.496 15.2582 158.312 14.8518 157.945 14.6457C157.577 14.4398 157.086 14.3367 156.469 14.3367H154.119V17.4265ZM171.563 12.3039C171.682 12.3039 171.784 12.3472 171.871 12.4341C171.957 12.5207 172.001 12.6238 172.001 12.743V19.4106C172.001 20.0827 171.903 20.6897 171.709 21.2317C171.514 21.7739 171.222 22.2401 170.833 22.6303C170.444 23.0206 169.958 23.3214 169.374 23.5329C168.791 23.7443 168.115 23.8499 167.348 23.8499C166.57 23.8499 165.891 23.7443 165.313 23.5329C164.735 23.3214 164.251 23.0206 163.862 22.6303C163.473 22.2401 163.184 21.7739 162.995 21.2317C162.806 20.6897 162.711 20.0827 162.711 19.4106V12.743C162.711 12.6238 162.754 12.5207 162.841 12.4341C162.927 12.3472 163.03 12.3039 163.149 12.3039H164.462C164.581 12.3039 164.684 12.3472 164.77 12.4341C164.857 12.5207 164.9 12.6238 164.9 12.743V19.3291C164.9 19.7737 164.959 20.1531 165.078 20.4674C165.197 20.7819 165.364 21.0394 165.581 21.24C165.797 21.4406 166.056 21.5867 166.359 21.6791C166.661 21.7711 166.991 21.8172 167.348 21.8172C167.704 21.8172 168.037 21.7711 168.345 21.6791C168.653 21.5867 168.915 21.4406 169.131 21.24C169.347 21.0394 169.517 20.7819 169.642 20.4674C169.766 20.1531 169.828 19.7737 169.828 19.3291V12.743C169.828 12.6238 169.871 12.5207 169.958 12.4341C170.044 12.3472 170.147 12.3039 170.266 12.3039H171.563ZM149.304 21.2155C149.423 21.2155 149.525 21.2588 149.612 21.3456C149.698 21.4325 149.741 21.5353 149.741 21.6546V23.2482C149.741 23.3675 149.698 23.4706 149.612 23.5572C149.525 23.644 149.423 23.6873 149.304 23.6873H147.796C147.677 23.6873 147.575 23.644 147.488 23.5572C147.401 23.4706 147.358 23.3675 147.358 23.2482V21.6546C147.358 21.5353 147.401 21.4325 147.488 21.3456C147.575 21.2588 147.677 21.2155 147.796 21.2155H149.304Z" fill="#2B2A29"/>
    <path d="M87.7882 18.1112L90.8684 12.7448C90.9116 12.6906 90.9846 12.6037 91.0873 12.4847C91.1898 12.3652 91.3494 12.3057 91.5655 12.3057H92.668C92.7869 12.3057 92.8894 12.349 92.976 12.4358C93.0623 12.5224 93.1055 12.6255 93.1055 12.7448V23.2499C93.1055 23.3692 93.0623 23.4723 92.976 23.5589C92.8894 23.6457 92.7869 23.6891 92.668 23.6891H91.3547C91.2358 23.6891 91.1333 23.6457 91.0467 23.5589C90.9603 23.4723 90.9169 23.3692 90.9169 23.2499V16.8916L88.8094 20.5504C88.7554 20.6373 88.6799 20.7267 88.5824 20.8188C88.4852 20.911 88.361 20.9571 88.2095 20.9571H87.3666C87.2153 20.9571 87.0911 20.911 86.9937 20.8188C86.8965 20.7267 86.8207 20.6373 86.7667 20.5504L84.6592 16.8916V23.2499C84.6592 23.3692 84.616 23.4723 84.5294 23.5589C84.4431 23.6457 84.3403 23.6891 84.2214 23.6891H82.9083C82.7894 23.6891 82.6867 23.6457 82.6003 23.5589C82.5137 23.4723 82.4706 23.3692 82.4706 23.2499V12.7448C82.4706 12.6255 82.5137 12.5224 82.6003 12.4358C82.6867 12.349 82.7894 12.3057 82.9083 12.3057H84.0106C84.2269 12.3057 84.3863 12.3652 84.489 12.4847C84.5915 12.6037 84.6645 12.6906 84.7079 12.7448L87.7882 18.1112ZM100.968 12.3057C101.141 12.3057 101.271 12.3517 101.358 12.4439C101.444 12.5361 101.52 12.6744 101.585 12.8587L105.557 23.1362C105.567 23.1687 105.573 23.2066 105.573 23.2499C105.573 23.3692 105.53 23.4723 105.443 23.5589C105.356 23.6457 105.254 23.6891 105.135 23.6891H103.968C103.752 23.6891 103.6 23.643 103.514 23.5508C103.427 23.4586 103.368 23.3692 103.335 23.2826L102.638 21.4775H97.5152L96.8182 23.2826C96.7856 23.3692 96.7263 23.4586 96.6397 23.5508C96.5534 23.643 96.4021 23.6891 96.1858 23.6891H95.0186C94.8997 23.6891 94.797 23.6457 94.7106 23.5589C94.6241 23.4723 94.5809 23.3692 94.5809 23.2499C94.5809 23.2066 94.5864 23.1687 94.597 23.1362L98.569 12.8587C98.6339 12.6744 98.7096 12.5361 98.796 12.4439C98.8825 12.3517 99.0121 12.3057 99.185 12.3057H100.968ZM101.86 19.4448L100.077 14.81L98.2933 19.4448H101.86ZM111.668 12.3057C113.019 12.3057 114.046 12.6202 114.749 13.249C115.451 13.8778 115.802 14.7504 115.802 15.867C115.802 16.6584 115.621 17.3332 115.259 17.8916C114.897 18.45 114.365 18.8646 113.663 19.1358L115.9 23.1524C115.932 23.2175 115.948 23.2771 115.948 23.3315C115.948 23.429 115.913 23.5128 115.843 23.5835C115.773 23.6539 115.689 23.6891 115.592 23.6891H114.214C113.998 23.6891 113.838 23.6376 113.735 23.5346C113.633 23.4315 113.56 23.3368 113.516 23.2499L111.393 19.461H109.236V23.2499C109.236 23.3692 109.193 23.4723 109.107 23.5589C109.02 23.6457 108.918 23.6891 108.799 23.6891H107.486C107.367 23.6891 107.264 23.6457 107.178 23.5589C107.091 23.4723 107.048 23.3692 107.048 23.2499V12.7448C107.048 12.6255 107.091 12.5224 107.178 12.4358C107.264 12.349 107.367 12.3057 107.486 12.3057H111.668ZM109.236 17.4282H111.587C112.203 17.4282 112.695 17.3198 113.063 17.103C113.43 16.8863 113.614 16.4742 113.614 15.867C113.614 15.26 113.43 14.8535 113.063 14.6474C112.695 14.4415 112.203 14.3384 111.587 14.3384H109.236V17.4282ZM126.519 23.0061C126.573 23.0603 126.605 23.1091 126.616 23.1524C126.627 23.1958 126.632 23.2284 126.632 23.2499C126.632 23.3692 126.589 23.4723 126.502 23.5589C126.416 23.6457 126.313 23.6891 126.194 23.6891H124.654C124.438 23.6891 124.265 23.6321 124.135 23.5184C124.006 23.4044 123.93 23.3368 123.909 23.315L120.099 19.0056V23.2499C120.099 23.3692 120.055 23.4723 119.969 23.5589C119.883 23.6457 119.78 23.6891 119.661 23.6891H118.348C118.229 23.6891 118.126 23.6457 118.04 23.5589C117.953 23.4723 117.91 23.3692 117.91 23.2499V12.7448C117.91 12.6255 117.953 12.5224 118.04 12.4358C118.126 12.349 118.229 12.3057 118.348 12.3057H119.661C119.78 12.3057 119.883 12.349 119.969 12.4358C120.055 12.5224 120.099 12.6255 120.099 12.7448V16.5664L123.633 12.6635C123.73 12.5551 123.833 12.4682 123.941 12.4032C124.049 12.3381 124.189 12.3057 124.362 12.3057H125.854C125.973 12.3057 126.075 12.349 126.162 12.4358C126.248 12.5224 126.291 12.6255 126.291 12.7448C126.291 12.8316 126.259 12.9129 126.194 12.9887L121.833 17.7536L126.519 23.0061ZM135.646 21.6563C135.765 21.6563 135.867 21.6999 135.954 21.7865C136.041 21.8731 136.084 21.9762 136.084 22.0954V23.2499C136.084 23.3692 136.041 23.4723 135.954 23.5589C135.867 23.6457 135.765 23.6891 135.646 23.6891H128.529C128.41 23.6891 128.307 23.6457 128.221 23.5589C128.134 23.4723 128.091 23.3692 128.091 23.2499V12.7448C128.091 12.6255 128.134 12.5224 128.221 12.4358C128.307 12.349 128.41 12.3057 128.529 12.3057H135.516C135.635 12.3057 135.738 12.349 135.824 12.4358C135.911 12.5224 135.954 12.6255 135.954 12.7448V13.8993C135.954 14.0186 135.911 14.1217 135.824 14.2083C135.738 14.2951 135.635 14.3384 135.516 14.3384H130.28V16.924H135.159C135.278 16.924 135.381 16.9673 135.468 17.0542C135.554 17.141 135.597 17.2439 135.597 17.3631V18.5179C135.597 18.6369 135.554 18.74 135.468 18.8268C135.381 18.9135 135.278 18.9568 135.159 18.9568H130.28V21.6563H135.646ZM145.649 12.3057C145.768 12.3057 145.87 12.349 145.957 12.4358C146.043 12.5224 146.086 12.6255 146.086 12.7448V13.8993C146.086 14.0186 146.043 14.1217 145.957 14.2083C145.87 14.2951 145.768 14.3384 145.649 14.3384H142.73V23.2499C142.73 23.3692 142.687 23.4723 142.601 23.5589C142.514 23.6457 142.412 23.6891 142.293 23.6891H140.98C140.861 23.6891 140.758 23.6457 140.672 23.5589C140.585 23.4723 140.542 23.3692 140.542 23.2499V14.3384H137.624C137.505 14.3384 137.402 14.2951 137.316 14.2083C137.229 14.1217 137.186 14.0186 137.186 13.8993V12.7448C137.186 12.6255 137.229 12.5224 137.316 12.4358C137.402 12.349 137.505 12.3057 137.624 12.3057H145.649Z" fill="#F15920"/>
    <path d="M16.5015 35.9907C15.671 35.9907 14.9003 35.7918 14.1735 35.4953C13.4908 35.2165 12.8535 34.8517 12.2424 34.4902C9.61485 32.9285 6.29306 31.2362 3.87936 29.4734C1.91012 28.1327 0.00575353 26.7936 0.00575353 21.5062L-0.000244141 17.9907L0.00922587 14.4748C0.00576255 9.14611 1.94036 7.82852 3.92508 6.47643L4.38455 6.16076L12.2424 1.491C12.854 1.12901 13.491 0.764479 14.1735 0.486095C14.8999 0.189415 15.671 -0.00976562 16.5015 -0.00976562C17.3323 -0.00976562 18.103 0.189415 18.8296 0.486095C19.5123 0.764942 20.1491 1.12947 20.7607 1.491L28.6185 6.16076L29.078 6.47643C31.0627 7.82852 32.9971 9.14611 32.9971 14.4748L33.0031 17.9907L32.9939 21.5062C32.9971 26.7936 31.093 28.1327 29.1237 29.4734C26.7096 31.2366 23.3885 32.9285 20.7607 34.4902C20.1491 34.8517 19.5128 35.2162 18.8296 35.4953C18.1028 35.7918 17.3323 35.9907 16.5015 35.9907Z" fill="#F15920"/>
    <path d="M16.5015 13.7108C14.1534 13.7108 12.2426 15.6277 12.2426 17.9833C12.2426 20.3387 14.1534 22.2548 16.5015 22.2548C18.8499 22.2548 20.7605 20.3387 20.7605 17.9833C20.7605 15.6277 18.8499 13.7108 16.5015 13.7108ZM16.5015 22.9479C13.7722 22.9479 11.5515 20.7213 11.5515 17.9833C11.5515 15.2451 13.7722 13.0178 16.5015 13.0178C19.2311 13.0178 21.4513 15.2451 21.4513 17.9833C21.4513 20.7213 19.2311 22.9479 16.5015 22.9479Z" fill="#FEFEFE" stroke="#FEFEFE" stroke-width="0.549543" stroke-miterlimit="10"/>
    <path d="M14.6291 12.1826L14.415 11.5228C14.8627 11.3766 15.3296 11.2789 15.8022 11.2305L15.8726 11.919C15.4485 11.9628 15.0303 12.0515 14.6291 12.1826ZM18.3891 12.1861C17.9846 12.0543 17.5666 11.9649 17.1457 11.9213L17.2171 11.2316C17.6863 11.2807 18.1526 11.3801 18.6029 11.5269L18.3891 12.1861ZM12.4356 13.4494L11.9741 12.9337C12.3267 12.6161 12.7122 12.3357 13.1202 12.0994L13.4656 12.6995C13.0992 12.9114 12.7524 13.1646 12.4356 13.4494ZM20.5779 13.4575C20.2623 13.1722 19.9164 12.9191 19.5497 12.7058L19.8961 12.1064C20.3043 12.344 20.6896 12.6254 21.0408 12.9436L20.5779 13.4575ZM10.9434 15.5005L10.3133 15.2166C10.5063 14.7849 10.746 14.3717 11.0244 13.9884L11.5825 14.3974C11.332 14.7411 11.1175 15.1123 10.9434 15.5005ZM22.0662 15.5109C21.8935 15.1228 21.6795 14.7515 21.4296 14.4071L21.9884 13.9995C22.2666 14.3821 22.5046 14.7967 22.6972 15.2298L22.0662 15.5109ZM10.4144 17.9814L9.72339 17.98C9.72454 17.5041 9.77464 17.0293 9.87323 16.5679L10.5486 16.7127C10.4604 17.1263 10.4154 17.5541 10.4144 17.9814ZM22.5901 18.0203V17.9941C22.5901 17.5664 22.546 17.1395 22.4587 16.7252L23.1347 16.5816C23.2319 17.0432 23.2809 17.5187 23.2809 17.9941L22.5901 18.0203ZM10.302 20.746C10.1108 20.3129 9.9642 19.8576 9.86746 19.3925L10.5435 19.2506C10.6305 19.6677 10.7615 20.0765 10.9335 20.4646L10.302 20.746ZM22.6859 20.7847L22.056 20.5005C22.2299 20.1124 22.364 19.705 22.4536 19.2886L23.129 19.4347C23.0288 19.8991 22.8796 20.3537 22.6859 20.7847ZM11.9528 23.0363C11.6021 22.7169 11.2844 22.3614 11.0083 21.9781L11.5677 21.5721C11.8159 21.9158 12.102 22.2359 12.4169 22.5229L11.9528 23.0363ZM21.0205 23.0627L20.5599 22.5469C20.8757 22.2623 21.1634 21.9441 21.4146 21.6006L21.9718 22.0108C21.6924 22.3925 21.3724 22.7466 21.0205 23.0627ZM14.3885 24.457C13.9408 24.3094 13.5065 24.1133 13.0962 23.8749L13.4434 23.2749C13.8117 23.4903 14.2019 23.6656 14.6039 23.7974L14.3885 24.457ZM18.5766 24.4702L18.3655 23.8096C18.7684 23.6799 19.1595 23.5067 19.5285 23.2948L19.8725 23.8958C19.4615 24.1327 19.0256 24.3254 18.5766 24.4702ZM16.5025 24.7939C16.2559 24.7939 16.0132 24.7807 15.7736 24.755L15.847 24.066C16.2647 24.1105 16.7013 24.1119 17.1197 24.0704L17.1891 24.7592C16.9633 24.7821 16.7343 24.7939 16.5025 24.7939Z" fill="#FEFEFE" stroke="#FEFEFE" stroke-width="0.549543" stroke-miterlimit="10"/>
    <path d="M14.4973 10.0054L14.3299 9.33329C14.8044 9.21471 15.2909 9.1341 15.7771 9.09473L15.833 9.78491C15.3846 9.82174 14.9353 9.89607 14.4973 10.0054ZM18.5203 10.0095C18.0841 9.89931 17.6355 9.82451 17.186 9.78722L17.2426 9.09681C17.73 9.13711 18.2169 9.21818 18.6895 9.33861L18.5203 10.0095ZM12.0277 11.09L11.65 10.5093C12.0596 10.2409 12.4936 10.0054 12.9411 9.80945L13.2175 10.444C12.8058 10.6249 12.4052 10.8419 12.0277 11.09ZM20.9871 11.099C20.6103 10.8514 20.2104 10.634 19.7987 10.451L20.0776 9.81755C20.5235 10.0144 20.9568 10.2507 21.3655 10.5198L20.9871 11.099ZM10.0412 12.9203L9.49673 12.4939C9.7955 12.1102 10.1305 11.7454 10.4919 11.4128L10.9594 11.9228C10.626 12.2299 10.3171 12.566 10.0412 12.9203ZM22.9697 12.9326C22.6938 12.5764 22.3854 12.241 22.0533 11.9332L22.522 11.4239C22.8818 11.7572 23.2159 12.1211 23.5149 12.5064L22.9697 12.9326ZM8.75304 15.2935L8.09986 15.0677C8.25894 14.6054 8.45842 14.1531 8.69208 13.7219L9.29839 14.0533C9.0832 14.4503 8.89965 14.8676 8.75304 15.2935ZM24.2542 15.3111C24.1082 14.8834 23.9254 14.4655 23.7104 14.0683L24.3176 13.7381C24.5508 14.1689 24.7494 14.6228 24.9083 15.0858L24.2542 15.3111ZM8.30603 17.9611L7.61499 17.9597C7.61614 17.4685 7.65724 16.9756 7.73782 16.4939L8.4194 16.609C8.34505 17.0525 8.30695 17.5079 8.30603 17.9611ZM24.6952 18.0144L24.6954 17.9687C24.6954 17.5252 24.6582 17.0706 24.585 16.6262L25.2664 16.5127C25.346 16.9944 25.3862 17.487 25.3862 17.9785L24.6952 18.0144ZM8.08739 20.8538C7.92969 20.3892 7.80986 19.9084 7.73136 19.4253L8.41363 19.3146C8.48567 19.7602 8.59603 20.2023 8.74079 20.6298L8.08739 20.8538ZM24.8956 20.9064L24.2431 20.6789C24.3908 20.2521 24.504 19.81 24.5792 19.3644L25.2606 19.4809C25.1789 19.9637 25.0558 20.4427 24.8956 20.9064ZM9.47479 23.4366C9.17556 23.0491 8.90634 22.6341 8.67453 22.2029L9.28269 21.8738C9.49627 22.2717 9.74493 22.654 10.0213 23.0116L9.47479 23.4366ZM23.4931 23.4788L22.9503 23.051C23.229 22.6943 23.4795 22.3131 23.6945 21.918L24.301 22.2508C24.0676 22.679 23.7956 23.092 23.4931 23.4788ZM11.6197 25.4274C11.2113 25.1579 10.8229 24.8521 10.4655 24.521L10.9352 24.0117C11.2644 24.3188 11.6227 24.5999 12.0002 24.8496L11.6197 25.4274ZM21.3355 25.4573L20.9589 24.8765C21.3371 24.6305 21.6971 24.3505 22.0293 24.0457L22.4959 24.5564C22.1358 24.8876 21.7456 25.1912 21.3355 25.4573ZM14.2932 26.6139C13.821 26.4926 13.3544 26.3312 12.9069 26.1322L13.1868 25.4988C13.5994 25.6824 14.0291 25.8307 14.464 25.9423L14.2932 26.6139ZM18.653 26.6285L18.4861 25.9555C18.9225 25.8466 19.3533 25.7005 19.7675 25.5196L20.0428 26.1551C19.5937 26.3506 19.1257 26.5106 18.653 26.6285ZM16.5007 26.8916C16.2442 26.8912 15.9909 26.8798 15.7402 26.8592L15.7981 26.169C16.243 26.2063 16.7034 26.2098 17.1502 26.1732L17.2063 26.8634C16.9738 26.8821 16.7383 26.8916 16.5007 26.8916Z" fill="#FEFEFE" stroke="#FEFEFE" stroke-width="0.549543" stroke-miterlimit="10"/>
    <path d="M15.1619 7.68903L15.0737 7.00164C15.5461 6.94073 16.027 6.91016 16.5022 6.91016L16.5135 7.6031H16.5022C16.0561 7.6031 15.6052 7.63228 15.1619 7.68903ZM19.1904 7.95722C18.7552 7.84003 18.3087 7.75087 17.8638 7.69251L17.9536 7.0051C18.4281 7.0674 18.9044 7.16238 19.3696 7.28721L19.1904 7.95722ZM12.5529 8.38546L12.2883 7.7453C12.7311 7.56071 13.1915 7.40554 13.6574 7.28094L13.835 7.95096C13.3984 8.06745 12.9671 8.21361 12.5529 8.38546ZM21.6829 8.99594C21.2957 8.77013 20.8879 8.56773 20.4712 8.39403L20.7369 7.7541C21.1814 7.93984 21.6162 8.15615 22.0294 8.39586L21.6829 8.99594ZM10.2128 9.73962L9.79238 9.19002C10.1724 8.89705 10.5767 8.62586 10.993 8.38546L11.3384 8.98506C10.9482 9.21157 10.5691 9.46517 10.2128 9.73962ZM23.8237 10.6461C23.5055 10.3272 23.1638 10.0257 22.8068 9.75005L23.2287 9.20115C23.6085 9.49435 23.9735 9.81605 24.312 10.1563L23.8237 10.6461ZM8.29945 11.6536L7.75202 11.2295C8.04571 10.8476 8.36618 10.4824 8.70582 10.1431L9.19346 10.6343C8.87552 10.9523 8.57467 11.2948 8.29945 11.6536ZM25.469 12.7958C25.245 12.4077 24.992 12.0278 24.7161 11.6668L25.2649 11.2462C25.5581 11.6302 25.8282 12.0348 26.067 12.4493L25.469 12.7958ZM6.94461 13.9946L6.30643 13.7278C6.48999 13.2843 6.70587 12.8479 6.94715 12.4313L7.54515 12.7792C7.31864 13.1701 7.11662 13.5789 6.94461 13.9946ZM26.5034 15.2987C26.3865 14.8624 26.2401 14.4298 26.0681 14.0134L26.7063 13.7479C26.8901 14.1928 27.0462 14.6542 27.1704 15.1209L26.5034 15.2987ZM6.24155 16.6087L5.55675 16.5179C5.61978 16.0403 5.71536 15.5623 5.83981 15.0979L6.50685 15.2781C6.39002 15.7133 6.30089 16.161 6.24155 16.6087ZM26.8527 18.03V17.9851C26.8527 17.5323 26.8234 17.0772 26.7654 16.6302L27.4505 16.5408C27.5121 17.017 27.5435 17.5026 27.5435 17.9851L26.8527 18.03ZM5.55097 19.4062C5.49141 18.9386 5.46069 18.4612 5.46069 17.9851L6.1522 17.9628L6.15151 18.0008C6.15174 18.4314 6.18014 18.8795 6.23648 19.3182L5.55097 19.4062ZM27.1582 20.8949L26.4916 20.7133C26.6091 20.2775 26.6996 19.8298 26.7596 19.3835L27.4442 19.4756C27.3807 19.9523 27.2838 20.4298 27.1582 20.8949ZM6.29004 22.2011C6.10695 21.7576 5.95133 21.2953 5.8278 20.8277L6.49577 20.6503C6.61144 21.088 6.75713 21.5214 6.92776 21.9357L6.29004 22.2011ZM26.045 23.5588L25.4484 23.2095C25.6752 22.8206 25.8779 22.4126 26.052 21.9952L26.689 22.2634C26.5034 22.7083 26.2868 23.1442 26.045 23.5588ZM7.72639 24.707C7.43455 24.323 7.1651 23.9177 6.92613 23.5006L7.52483 23.1555C7.74902 23.5462 8.00162 23.9268 8.27545 24.2858L7.72639 24.707ZM24.2822 25.8435L23.7957 25.3523C24.1141 25.0348 24.4154 24.6925 24.6916 24.3349L25.2379 24.7591C24.9437 25.1408 24.6219 25.5054 24.2822 25.8435ZM9.75821 26.7548C9.37886 26.4609 9.01475 26.1381 8.67603 25.7972L9.16575 25.3087C9.48322 25.6288 9.8247 25.9301 10.1807 26.2069L9.75821 26.7548ZM21.9916 27.5963L21.6483 26.9952C22.0368 26.7715 22.416 26.5193 22.7748 26.2435L23.1943 26.7944C22.8112 27.0883 22.4067 27.3577 21.9916 27.5963ZM12.2465 28.2075C11.8055 28.0231 11.371 27.8054 10.9551 27.5636L11.3024 26.9635C11.6926 27.1917 12.0996 27.3945 12.5132 27.5685L12.2465 28.2075ZM19.3246 28.6945L19.1484 28.0252C19.5837 27.9101 20.0156 27.7646 20.4319 27.5928L20.6945 28.2336C20.2498 28.4168 19.7889 28.572 19.3246 28.6945ZM15.028 28.9629C14.5514 28.899 14.0751 28.8034 13.6122 28.6774L13.793 28.0085C14.2264 28.1262 14.6727 28.2165 15.1192 28.2753L15.028 28.9629ZM16.5022 29.0604L16.4685 28.3675H16.5022C16.9439 28.3675 17.3874 28.3397 17.8206 28.2843L17.9079 28.9717C17.4459 29.0306 16.973 29.0604 16.5022 29.0604Z" fill="#FEFEFE" stroke="#FEFEFE" stroke-width="0.549543" stroke-miterlimit="10"/>
  </g>
  <defs>
    <clipPath id="clip0_1443_961">
      <rect width="172" height="36" fill="white"/>
    </clipPath>
  </defs>
</svg>